:SAMPLES-PER-SECOND 30
:FULLY-SPECIFIED
:DEGREES
271
root  35.09846785 36.49940491 -14.95873609 9.113889694 2.89596796 3.358703136
lowerback  -8.148890495 0.279707998 1.182440877
upperback  -3.818099976 -0.03621640056 -2.973829985
thorax  0.6176329851 -0.2109269947 -3.744719982
lowerneck  -16.43569946 -0.2600950003 -0.132949993
upperneck  13.6267004 -1.487210155 5.781980038
head  6.920760155 -0.2697140574 1.737215877
lclavicle  0 -4.497500157e-015 -2.743230041e-014
lhumerus  -43.67399979 25.84090042 70.63909912
lradius  -0.1064295322 -6.507048965e-006 28.55129814
lwrist  4.824992743e-007 -3.790274832e-007 -29.25909996
lhand  -4.420616235e-031 -36.9856987 -10.42650032
lfingers  90 7.125020027 -90
lthumb  94.80301312 -25.26397725 101.1378152
rclavicle  0 -4.497500157e-015 -2.743230041e-014
rhumerus  -47.19079971 -14.99610043 -68.86270142
rradius  -5.16745672e-007 2.214343908e-008 93.56659698
rwrist  1.380293725e-006 2.528095422e-007 -174.0390015
rhand  -1.768131753e-031 3.089119911 -4.974460125
rfingers  -90 -7.125020027 -90
rthumb  -84.10892776 -10.68472188 -60.90292682
rfemur  -12.57145786 14.16219616 13.76967335
rtibia  -1.486197472 1.157624722 22.11374664
rfoot  -1.21252954 -18.0935154 -40.81446457
rtoes  3.786257412 19.65276285 -101.1321273
lfemur  -10.59327412 -19.53223801 -18.65061569
ltibia  1.460174561 0.7024595141 16.53295135
lfoot  0.637059629 -27.86441422 34.37662125
ltoes  -8.647391629 -18.10335497 -116.0785632
272
root  35.0919348 36.49472214 -14.95926174 9.195786476 2.961829424 3.318957806
lowerback  -8.107509613 0.2203149647 1.19470048
upperback  -3.78350997 -0.1112509966 -2.966880083
thorax  0.6250169873 -0.2460599989 -3.750639915
lowerneck  -16.45689964 -0.200466007 -0.09463729709
upperneck  13.69019985 -1.416350126 5.760270119
head  6.942289829 -0.2342790514 1.733207464
lclavicle  0 -4.497500157e-015 -2.743230041e-014
lhumerus  -43.60580063 25.73130035 70.75610352
lradius  -0.1060777158 -6.507048965e-006 28.58169746
lwrist  4.824992743e-007 -3.790274832e-007 -29.00419998
lhand  -4.420796467e-031 -36.98880005 -10.47949982
lfingers  90 7.125020027 -90
lthumb  94.81579573 -25.31592275 101.1459791
rclavicle  0 -4.497500157e-015 -2.743230041e-014
rhumerus  -47.63570023 -15.58270073 -68.91259766
rradius  -5.16745672e-007 2.214343908e-008 92.07250214
rwrist  1.380293725e-006 2.528095422e-007 -173.3419952
rhand  -0 2.977999926 -4.927360058
rfingers  -90 -7.125020027 -90
rthumb  -84.11441704 -10.72123274 -61.00774743
rfemur  -12.67324829 14.18342876 13.78827477
rtibia  -1.476738453 1.199418426 22.13201141
rfoot  -1.232287526 -18.03984833 -40.87646103
rtoes  3.775744678 19.65470817 -101.1008705
lfemur  -10.74152756 -19.48082924 -18.53521538
ltibia  1.39741528 0.7642787695 16.60429382
lfoot  0.614477396 -27.99543571 34.27596664
ltoes  -8.665291673 -18.09501701 -116.1361821
273
root  35.09334354 36.49381502 -14.95988951 9.19535923 2.93358779 3.264820576
lowerback  -8.103139877 0.1890680641 1.135030389
upperback  -3.778889894 -0.1483729929 -2.950020075
thorax  0.6248869896 -0.2636260092 -3.702349901
lowerneck  -16.48139954 -0.1549160033 -0.08749370277
upperneck  13.74100018 -1.358680129 5.753829956
head  6.960949898 -0.2055010051 1.729370236
lclavicle  0 -4.497500157e-015 -2.743230041e-014
lhumerus  -43.57369995 25.72410011 70.83779907
lradius  -0.105695039 -6.507048965e-006 28.62660027
lwrist  4.824992743e-007 -3.790274832e-007 -28.92490005
lhand  -4.420465287e-031 -36.98310089 -10.44009972
lfingers  90 7.125020027 -90
lthumb  94.8047209 -25.27743256 101.1362918
rclavicle  0 -4.497500157e-015 -2.743230041e-014
rhumerus  -48.03950119 -16.13619995 -68.90190125
rradius  -5.16745672e-007 2.214343908e-008 90.48300171
rwrist  1.380293725e-006 2.528095422e-007 -172.970993
rhand  -1.767818571e-031 2.894939899 -4.727600098
rfingers  -90 -7.125020027 -90
rthumb  -84.03753935 -10.89259298 -61.07081049
rfemur  -12.63843536 14.22055149 13.80941677
rtibia  -1.43536973 1.22002995 22.03733444
rfoot  -1.193031669 -18.01619339 -40.88398743
rtoes  3.796305749 19.6508982 -101.162006
lfemur  -10.82847023 -19.41685677 -18.44135666
ltibia  1.304576516 0.7711719275 16.74755669
lfoot  0.6004598737 -28.08392334 34.21572113
ltoes  -8.605122327 -18.12295863 -115.9426031
274
root  35.09565338 36.49505255 -14.96047373 9.223858833 2.845354795 3.233929157
lowerback  -8.040988922 0.1812810004 1.12651968
upperback  -3.779289961 -0.1573300064 -2.946019888
thorax  0.5895760059 -0.2679570019 -3.693520069
lowerneck  -16.46349907 -0.1165769994 -0.05866799876
upperneck  13.76099968 -1.314070106 5.746369839
head  6.962790012 -0.1834830493 1.728949904
lclavicle  0 -4.497500157e-015 -2.743230041e-014
lhumerus  -43.53939819 25.59950066 70.92089844
lradius  -0.1053097025 -6.507048965e-006 28.67819977
lwrist  4.824992743e-007 -3.790274832e-007 -28.7968998
lhand  -4.420012115e-031 -36.97529984 -10.47980022
lfingers  90 7.125020027 -90
lthumb  94.80958244 -25.31662039 101.1316125
rclavicle  0 -4.497500157e-015 -2.743230041e-014
rhumerus  -48.38090134 -16.61949921 -68.82649994
rradius  -5.16745672e-007 2.214343908e-008 88.84400177
rwrist  1.380293725e-006 2.528095422e-007 -172.3179932
rhand  -1.767642733e-031 2.779949903 -4.778379917
rfingers  -90 -7.125020027 -90
rthumb  -84.09244834 -10.84353561 -61.1885152
rfemur  -12.6434536 14.26912403 13.800354
rtibia  -1.406238794 1.200247884 21.95505714
rfoot  -1.154793501 -18.040905 -40.85878754
rtoes  3.813727047 19.64765315 -101.2138148
lfemur  -10.89193058 -19.28874207 -18.39790154
ltibia  1.2666924 0.8114286661 16.82970238
lfoot  0.6306039691 -28.21616173 34.20756531
ltoes  -8.604701986 -18.12315297 -115.9412518
275
root  35.09776799 36.49371891 -14.96112703 9.205783844 2.717017174 3.308501005
lowerback  -8.07130909 0.2022860497 1.232039452
upperback  -3.78399992 -0.136225 -2.916739941
thorax  0.6028540134 -0.2577680051 -3.721339941
lowerneck  -16.46069908 -0.08601880074 -0.05147569999
upperneck  13.7816 -1.2806499 5.767640114
head  6.971271992 -0.1658125073 1.735989809
lclavicle  0 -4.497500157e-015 -2.743230041e-014
lhumerus  -43.49840164 25.46920013 71.0401001
lradius  -0.1049216911 -6.507048965e-006 28.72649956
lwrist  4.824992743e-007 -3.790274832e-007 -28.6223011
lhand  -4.419286297e-031 -36.96279907 -10.48649979
lfingers  90 7.125020027 -90
lthumb  94.80524846 -25.32371034 101.1189499
rclavicle  0 -4.497500157e-015 -2.743230041e-014
rhumerus  -48.69879913 -17.00930023 -68.78269958
rradius  -5.16745672e-007 2.214343908e-008 87.19219971
rwrist  1.380293725e-006 2.528095422e-007 -171.6029968
rhand  -1.767866774e-031 2.925669909 -4.878419876
rfingers  -90 -7.125020027 -90
rthumb  -84.10383778 -10.76188468 -61.05464127
rfemur  -12.70201492 14.3272171 13.72100735
rtibia  -1.443135142 1.157053113 22.08771515
rfoot  -1.218888402 -18.11920166 -40.84163284
rtoes  3.830610922 19.64449344 -101.2640332
lfemur  -10.76793289 -19.20070076 -18.55449486
ltibia  1.362064123 0.7897279263 16.67017174
lfoot  0.6339224577 -28.11526299 34.24967194
ltoes  -8.584405163 -18.13252298 -115.8760177
276
root  35.09526591 36.49490537 -14.96031754 9.219726563 2.622638702 3.287817001
lowerback  -8.036419868 0.2038440257 1.26848042
upperback  -3.789419889 -0.1366920024 -2.916990042
thorax  0.5778769851 -0.2587040067 -3.741960049
lowerneck  -16.45919991 -0.05324539915 -0.03982080147
upperneck  13.81960011 -1.246010184 5.785180092
head  6.979229927 -0.1465550512 1.746150136
lclavicle  0 -4.497500157e-015 -2.743230041e-014
lhumerus  -43.44620132 25.2942009 71.18669891
lradius  -0.104531005 -6.507048965e-006 28.76099777
lwrist  4.824992743e-007 -3.790274832e-007 -28.44300079
lhand  -4.419222529e-031 -36.96170044 -10.42280006
lfingers  90 7.125020027 -90
lthumb  94.79112622 -25.26119844 101.1119248
rclavicle  0 -4.497500157e-015 -2.743230041e-014
rhumerus  -48.96450043 -17.38259888 -68.82550049
rradius  -5.16745672e-007 2.214343908e-008 85.38300323
rwrist  1.380293725e-006 2.528095422e-007 -171.4750061
rhand  -1.76849266e-031 3.298680067 -4.564620018
rfingers  -90 -7.125020027 -90
rthumb  -83.85020508 -11.05088096 -60.65862038
rfemur  -12.73420811 14.32300663 13.72098923
rtibia  -1.425851345 1.142875671 22.08246994
rfoot  -1.202143312 -18.17395973 -40.75562286
rtoes  3.791922953 19.65171214 -101.1489735
lfemur  -10.81412029 -19.17029762 -18.51131821
ltibia  1.322878003 0.7693283558 16.71959877
lfoot  0.6259982586 -28.08346939 34.27172089
ltoes  -8.616414607 -18.11773326 -115.9789111
277
root  35.0984288 36.49531988 -14.95962669 9.20907402 2.46385479 3.284162045
lowerback  -8.021570206 0.21310094 1.236899018
upperback  -3.799289942 -0.122409001 -2.880110025
thorax  0.5608080029 -0.2566913962 -3.684240103
lowerneck  -16.45330048 -0.006337809842 -0.05854159966
upperneck  13.84630013 -1.186470151 5.819250107
head  6.985300064 -0.1159559861 1.766869903
lclavicle  0 -4.497500157e-015 -2.743230041e-014
lhumerus  -43.41809845 25.18799973 71.332901
lradius  -0.1041376442 -6.507048965e-006 28.80540276
lwrist  4.824992743e-007 -3.790274832e-007 -28.21990013
lhand  -4.419582373e-031 -36.96789932 -10.30860043
lfingers  90 7.125020027 -90
lthumb  94.76963654 -25.14894207 101.1080932
rclavicle  0 -4.497500157e-015 -2.743230041e-014
rhumerus  -49.12039948 -17.65390015 -68.87470245
rradius  -5.16745672e-007 2.214343908e-008 83.61380005
rwrist  1.380293725e-006 2.528095422e-007 -171.1190033
rhand  -0 2.915549994 -4.713069916
rfingers  -90 -7.125020027 -90
rthumb  -84.02499359 -10.90612461 -61.04919941
rfemur  -12.73770046 14.37908459 13.69181919
rtibia  -1.408364773 1.113656044 22.06302261
rfoot  -1.17416811 -18.23365402 -40.66240692
rtoes  3.802006318 19.64983806 -101.1789579
lfemur  -10.78486156 -19.07991409 -18.54034424
ltibia  1.319224238 0.74892658 16.72559547
lfoot  0.6361044049 -28.05905533 34.3184166
ltoes  -8.592369644 -18.12884948 -115.9016117
